HIERARCHY
ROOT root
{
	OFFSET 0.000000 0.000000 0.000000
	CHANNELS 6 Xposition Yposition Zposition Zrotation Yrotation Xrotation
	JOINT lhip
	{
		OFFSET 0.058581 -0.082280 -0.017664
		CHANNELS 3 Zrotation Yrotation Xrotation
		JOINT lknee
		{
			OFFSET 0.043451 -0.386469 0.008037
			CHANNELS 3 Zrotation Yrotation Xrotation
			JOINT lankle
			{
				OFFSET -0.014790 -0.426874 -0.037428
				CHANNELS 3 Zrotation Yrotation Xrotation
				JOINT ltoe
				{
					OFFSET 0.041054 -0.060286 0.122042
					CHANNELS 3 Zrotation Yrotation Xrotation
					End Site
					{
						OFFSET 0.000000 0.000000 0.000000
					}
				}
			}
		}
	}
	JOINT rhip
	{
		OFFSET -0.060310 -0.090513 -0.013543
		CHANNELS 3 Zrotation Yrotation Xrotation
		JOINT rknee
		{
			OFFSET -0.043257 -0.383688 -0.004843
			CHANNELS 3 Zrotation Yrotation Xrotation
			JOINT rankle
			{
				OFFSET 0.019056 -0.420046 -0.034562
				CHANNELS 3 Zrotation Yrotation Xrotation
				JOINT rtoe
				{
					OFFSET -0.034840 -0.062106 0.130323
					CHANNELS 3 Zrotation Yrotation Xrotation
					End Site
					{
						OFFSET 0.000000 0.000000 0.000000
					}
				}
			}
		}
	}
	JOINT lowerback
	{
		OFFSET 0.004439 0.124404 -0.038385
		CHANNELS 3 Zrotation Yrotation Xrotation
		JOINT upperback
		{
			OFFSET 0.004488 0.137956 0.026820
			CHANNELS 3 Zrotation Yrotation Xrotation
			JOINT chest
			{
				OFFSET -0.002265 0.056032 0.002855
				CHANNELS 3 Zrotation Yrotation Xrotation
				JOINT lowerneck
				{
					OFFSET -0.013390 0.211636 -0.033468
					CHANNELS 3 Zrotation Yrotation Xrotation
					JOINT upperneck
					{
						OFFSET 0.010113 0.088937 0.050410
						CHANNELS 3 Zrotation Yrotation Xrotation
						End Site
						{
							OFFSET 0.000000 0.000000 0.000000
						}
					}
				}
				JOINT lclavicle
				{
					OFFSET 0.071702 0.114000 -0.018898
					CHANNELS 3 Zrotation Yrotation Xrotation
					JOINT lshoulder
					{
						OFFSET 0.122921 0.045205 -0.019046
						CHANNELS 3 Zrotation Yrotation Xrotation
						JOINT lelbow
						{
							OFFSET 0.255332 -0.015649 -0.022946
							CHANNELS 3 Zrotation Yrotation Xrotation
							JOINT lwrist
							{
								OFFSET 0.265709 0.012698 -0.007375
								CHANNELS 3 Zrotation Yrotation Xrotation
								End Site
								{
									OFFSET 0.000000 0.000000 0.000000
								}
							}
						}
					}
				}
				JOINT rclavicle
				{
					OFFSET -0.082954 0.112472 -0.023707
					CHANNELS 3 Zrotation Yrotation Xrotation
					JOINT rshoulder
					{
						OFFSET -0.113228 0.046853 -0.008472
						CHANNELS 3 Zrotation Yrotation Xrotation
						JOINT relbow
						{
							OFFSET -0.260127 -0.014369 -0.031269
							CHANNELS 3 Zrotation Yrotation Xrotation
							JOINT rwrist
							{
								OFFSET -0.269108 0.006794 -0.006027
								CHANNELS 3 Zrotation Yrotation Xrotation
								End Site
								{
									OFFSET 0.000000 0.000000 0.000000
								}
							}
						}
					}
				}
			}
		}
	}
}
MOTION
Frames: 11
Frame Time: 0.033333
0.394359 1.196649 0.936898 -148.933547 -2.733144 78.237432 -13.771532 -0.002150 -0.080185 -14.327983 -10.320868 28.109203 10.346849 16.460378 -25.820727 0.000000 -0.000000 0.000000 -18.296542 -8.753573 -13.982831 4.381271 0.482261 1.223920 14.418847 -14.407028 16.833143 0.000000 -0.000000 0.000000 8.250316 3.745020 13.110376 8.988218 1.477634 -7.152605 5.506652 5.727753 4.619416 4.697718 5.862464 -12.221365 -2.793831 -0.551145 8.762882 0.228358 -4.798360 -14.174022 15.052153 -9.052535 -7.871037 17.750823 -39.831721 -34.740940 43.235842 -34.771388 -2.191801 19.763714 23.018174 -8.602380 2.068549 38.515641 7.462033 8.575601 43.934669 -4.241015 1.089322 18.147210 -9.931071 
0.387991 1.200357 0.936658 -146.188545 -3.331437 78.311020 -14.912632 -0.538419 0.956106 -14.434568 -12.182140 27.625495 10.369621 16.504899 -25.782160 0.000000 -0.000000 0.000000 -16.699678 -7.552606 -15.303003 4.369738 1.518045 0.619915 14.869052 -14.172721 17.837302 0.000000 -0.000000 0.000000 8.255600 3.240395 13.587085 9.068863 1.570329 -7.272068 5.667850 5.723713 4.648728 4.309262 6.747231 -12.729194 -3.546158 0.243162 8.553112 0.618689 -4.697905 -14.336295 14.758452 -8.801535 -7.349671 18.092777 -39.728716 -35.102620 43.344654 -34.816616 -2.298345 19.162009 23.255504 -9.016889 2.728191 38.884268 8.113922 7.420456 44.128444 -4.935322 1.807269 18.305353 -10.343468 
0.382750 1.204996 0.937222 -143.089523 -3.741437 78.504176 -15.648501 -0.936337 1.823286 -14.400348 -13.873083 27.445028 9.880520 15.684111 -25.596653 0.000000 -0.000000 0.000000 -15.137019 -6.354896 -16.366885 4.323623 1.784516 0.346787 15.500365 -13.500711 17.447223 0.000000 -0.000000 0.000000 8.271734 2.708370 13.917884 9.145603 1.526856 -7.427086 5.697169 5.619264 4.579676 3.849073 7.938069 -12.601069 -3.910204 0.757385 7.445382 0.612021 -4.737808 -14.239311 14.960337 -8.596256 -7.041071 18.710046 -39.471892 -36.071405 42.624695 -34.920469 -1.481453 19.375676 23.397078 -8.988734 1.780330 39.452554 7.815736 8.190642 44.406420 -4.431322 1.641511 18.004062 -10.971225 
0.376524 1.209849 0.938077 -139.820577 -4.413814 78.649415 -16.696290 -1.655360 3.258209 -14.588500 -16.278016 26.487940 9.718312 15.703967 -25.416659 0.000000 -0.000000 0.000000 -14.409276 -5.076345 -17.132259 4.511187 2.590357 0.474007 15.941246 -12.594818 16.014149 0.000000 -0.000000 0.000000 8.025489 2.257479 14.037537 9.198704 1.457808 -7.333639 5.683429 5.522800 4.518499 3.775561 9.368003 -12.820425 -4.714508 1.276461 7.233355 0.673040 -4.804032 -14.269038 15.056931 -8.536845 -6.727255 18.709763 -39.349119 -36.252138 42.649956 -35.005994 -1.625038 19.336360 23.497240 -9.204058 1.441025 40.025279 7.831899 8.135612 44.360698 -4.028430 1.014641 17.624116 -11.052756 
0.371269 1.215885 0.939304 -136.313210 -4.743765 79.008900 -17.119415 -2.319926 4.278363 -14.630508 -18.444685 25.963562 9.245818 14.980065 -25.348894 0.000000 -0.000000 0.000000 -13.722843 -3.562522 -17.653511 4.410567 4.091359 0.650753 17.495411 -11.143371 14.764472 0.000000 -0.000000 0.000000 7.937044 1.861979 14.113171 9.296089 1.427566 -7.396385 5.612975 5.374385 4.277008 3.693026 10.598366 -12.848485 -5.471514 1.821839 6.907043 0.735844 -4.911123 -14.322788 14.825835 -8.801706 -6.130560 19.143327 -38.981021 -36.475168 42.746315 -35.107500 -1.453448 19.029360 23.547257 -9.718458 1.685616 40.527303 8.260805 8.048187 44.018457 -3.817838 1.204147 17.939655 -11.488452 
0.366266 1.223015 0.941059 -132.704816 -4.855299 79.543708 -16.966314 -2.491823 5.318646 -14.755523 -21.345455 25.185667 8.868544 14.179039 -25.167515 0.000000 -0.000000 0.000000 -13.386810 -2.528044 -18.130735 4.699936 6.210438 1.080811 19.530819 -9.165395 14.839478 0.000000 -0.000000 0.000000 8.134635 1.459913 13.896311 9.291635 1.417214 -7.433591 5.588596 5.238278 4.144545 3.433447 11.383713 -13.378774 -6.187245 2.390411 7.104130 0.758141 -5.179315 -14.821382 14.588401 -8.940276 -5.760552 18.646450 -39.009764 -36.785978 42.684451 -35.633889 -1.061130 18.478574 23.785805 -10.069925 1.757796 40.855300 8.190582 7.902037 43.663267 -4.513940 1.143351 17.885820 -10.516128 
0.360639 1.230787 0.943724 -128.835011 -5.079346 79.931041 -16.545245 -2.746852 6.442146 -15.125288 -23.825914 24.454000 8.419127 12.832483 -24.384026 0.000000 -0.000000 0.000000 -13.758974 -1.486362 -17.964443 4.759537 9.133224 1.870603 19.815782 -7.006079 13.894239 0.000000 -0.000000 0.000000 8.292796 1.238250 13.857060 9.223808 1.357595 -7.232439 5.384921 5.106734 3.676082 3.069614 12.279754 -13.496557 -6.278224 2.721562 6.567078 0.769691 -5.536414 -14.867455 13.978200 -9.015276 -5.551648 19.142559 -39.043893 -36.616947 42.093707 -35.350453 -1.343827 18.076873 23.887841 -10.373135 1.420331 40.867353 7.698823 7.976130 43.705267 -3.765816 1.572067 17.726767 -10.560157 
0.355363 1.239442 0.946666 -124.659217 -5.306740 80.538598 -16.139957 -3.203153 7.441428 -15.257359 -26.887416 23.649632 8.001770 11.802596 -23.739792 0.000000 -0.000000 0.000000 -14.433310 -0.949532 -18.259943 4.499952 10.989774 4.376741 17.511330 -7.455023 11.110058 0.000000 -0.000000 0.000000 8.341161 0.863044 13.144031 9.200642 1.271630 -6.677470 5.155606 5.054024 3.579072 3.103502 12.818000 -14.051163 -6.889589 3.015673 6.628358 0.539853 -5.782735 -14.926370 13.972883 -9.116057 -5.240410 18.805152 -39.257546 -36.313547 41.808517 -35.448593 -1.047209 17.906274 24.084816 -10.452170 0.358605 40.843964 7.189506 7.585833 43.966094 -4.767791 1.534152 17.591211 -10.062688 
0.349581 1.248688 0.950226 -120.501230 -5.411014 81.182570 -15.445634 -3.492131 8.468853 -15.129762 -30.011864 22.604180 7.106280 10.791192 -23.067737 0.000000 -0.000000 0.000000 -15.536750 -0.993446 -18.258684 4.180539 10.564644 6.740755 16.642092 -8.489352 7.673219 0.000000 -0.000000 0.000000 8.547810 0.504541 12.828462 9.000299 1.394742 -6.633044 4.931545 4.879258 3.546125 3.097296 13.396950 -14.413359 -7.082320 3.262094 6.323172 0.398985 -5.782266 -14.614394 13.912578 -9.105230 -4.968256 18.887038 -39.392057 -35.788438 43.093782 -34.984674 -2.565136 17.679704 24.319923 -10.891007 -0.155980 40.992053 6.843418 7.594121 43.814394 -4.907113 0.873796 17.770430 -10.467834 
0.345770 1.259138 0.954804 -117.094743 -5.328231 82.245945 -14.495639 -4.564313 8.878719 -14.734464 -32.176161 21.287441 6.246992 10.214398 -22.525309 0.000000 -0.000000 0.000000 -16.448913 -0.770838 -18.479429 4.189815 11.206302 8.169023 16.758898 -8.778841 5.496598 0.000000 -0.000000 0.000000 8.914257 0.628294 12.334322 8.964026 1.669597 -6.358803 4.755085 4.961191 3.121937 3.058564 13.792957 -14.452708 -7.648781 3.432462 6.549348 -0.090824 -6.144266 -14.367645 14.053036 -8.964956 -4.646939 18.598326 -39.346643 -35.277949 42.615577 -34.986092 -1.821956 18.021066 24.765063 -10.203911 -2.020782 40.631186 5.723394 7.521191 43.984603 -5.410217 0.077082 17.808433 -10.553841 
0.341205 1.272353 0.959398 -114.202651 -5.239783 83.268777 -13.380225 -4.953046 9.324316 -14.023997 -34.213712 19.919896 5.507486 9.611762 -21.837964 0.000000 -0.000000 0.000000 -17.006398 -0.190773 -18.395703 4.149657 13.611200 10.017235 16.632009 -7.521147 3.037570 0.000000 -0.000000 0.000000 8.820769 0.871390 11.739097 9.004835 1.985435 -5.741330 4.773782 5.228402 2.878669 3.336282 14.379796 -14.873332 -8.098154 3.220289 7.202808 -0.231536 -6.124717 -14.469551 13.885301 -8.878911 -4.504951 18.485959 -39.271474 -35.028285 42.418035 -35.139306 -2.009948 18.409959 25.077505 -9.940380 -3.070878 40.673821 4.605358 7.545887 43.736318 -5.654751 0.280307 18.114105 -10.397917 
